<mxfile host="app.diagrams.net" agent="Mozilla/5.0 (Windows NT 10.0; Win64; x64) AppleWebKit/537.36 (KHTML, like Gecko) Chrome/123.0.0.0 Safari/537.36" version="26.0.16">
  <diagram name="Page-1" id="Rmv7p0O5-31c5WAlRNyW">
    <mxGraphModel dx="1434" dy="820" grid="1" gridSize="10" guides="1" tooltips="1" connect="1" arrows="1" fold="1" page="1" pageScale="1" pageWidth="850" pageHeight="1100" math="0" shadow="0">
      <root>
        <mxCell id="0" />
        <mxCell id="1" parent="0" />
        <mxCell id="9Qq0X012Kg6SyGd3TspW-2" value="" style="rounded=0;whiteSpace=wrap;html=1;" parent="1" vertex="1">
          <mxGeometry width="850" height="1100" as="geometry" />
        </mxCell>
        <mxCell id="dDh1VdNIhWimBruO15Ut-1" value="" style="ellipse;whiteSpace=wrap;html=1;aspect=fixed;strokeWidth=2;" parent="1" vertex="1">
          <mxGeometry x="20" y="190" width="680" height="680" as="geometry" />
        </mxCell>
        <mxCell id="dDh1VdNIhWimBruO15Ut-2" value="&lt;font style=&quot;font-size: 19px;&quot;&gt;System&lt;/font&gt;&lt;div style=&quot;font-size: 19px;&quot;&gt;&lt;font style=&quot;font-size: 19px;&quot;&gt;Boundary&lt;/font&gt;&lt;/div&gt;" style="text;html=1;align=center;verticalAlign=middle;resizable=0;points=[];autosize=1;strokeColor=none;fillColor=none;" parent="1" vertex="1">
          <mxGeometry x="140" y="130" width="100" height="60" as="geometry" />
        </mxCell>
        <mxCell id="dDh1VdNIhWimBruO15Ut-4" value="" style="endArrow=none;html=1;rounded=0;entryX=0.5;entryY=0.95;entryDx=0;entryDy=0;entryPerimeter=0;exitX=0.271;exitY=0.056;exitDx=0;exitDy=0;exitPerimeter=0;endFill=0;startArrow=classic;startFill=1;" parent="1" source="dDh1VdNIhWimBruO15Ut-1" target="dDh1VdNIhWimBruO15Ut-2" edge="1">
          <mxGeometry width="50" height="50" relative="1" as="geometry">
            <mxPoint x="150" y="240" as="sourcePoint" />
            <mxPoint x="200" y="190" as="targetPoint" />
          </mxGeometry>
        </mxCell>
        <mxCell id="dDh1VdNIhWimBruO15Ut-8" value="&lt;font size=&quot;1&quot; style=&quot;&quot;&gt;&lt;b style=&quot;font-size: 26px;&quot;&gt;System Environment&lt;/b&gt;&lt;/font&gt;" style="text;html=1;align=center;verticalAlign=middle;resizable=0;points=[];autosize=1;strokeColor=none;fillColor=none;" parent="1" vertex="1">
          <mxGeometry x="120" y="990" width="280" height="40" as="geometry" />
        </mxCell>
        <mxCell id="dDh1VdNIhWimBruO15Ut-11" value="&lt;font size=&quot;1&quot; style=&quot;&quot;&gt;&lt;b style=&quot;font-size: 26px;&quot;&gt;The System&lt;/b&gt;&lt;/font&gt;" style="text;html=1;align=center;verticalAlign=middle;resizable=0;points=[];autosize=1;strokeColor=none;fillColor=none;" parent="1" vertex="1">
          <mxGeometry x="275" y="200" width="170" height="40" as="geometry" />
        </mxCell>
        <mxCell id="dDh1VdNIhWimBruO15Ut-18" value="&lt;font style=&quot;font-size: 18px;&quot;&gt;MySQL Database/ PHPMyAdmin&lt;/font&gt;" style="ellipse;whiteSpace=wrap;html=1;aspect=fixed;" parent="1" vertex="1">
          <mxGeometry x="400" y="610" width="190" height="190" as="geometry" />
        </mxCell>
        <mxCell id="dDh1VdNIhWimBruO15Ut-19" value="&lt;font style=&quot;font-size: 18px;&quot;&gt;Apache deployment&lt;/font&gt;" style="ellipse;whiteSpace=wrap;html=1;aspect=fixed;" parent="1" vertex="1">
          <mxGeometry x="265" y="250" width="190" height="190" as="geometry" />
        </mxCell>
        <mxCell id="dDh1VdNIhWimBruO15Ut-20" value="&lt;font style=&quot;font-size: 18px;&quot;&gt;Python Scripting&lt;/font&gt;" style="ellipse;whiteSpace=wrap;html=1;aspect=fixed;" parent="1" vertex="1">
          <mxGeometry x="150" y="610" width="190" height="190" as="geometry" />
        </mxCell>
        <mxCell id="dDh1VdNIhWimBruO15Ut-21" value="&lt;span style=&quot;font-size: 18px;&quot;&gt;Django compiler&lt;/span&gt;" style="ellipse;whiteSpace=wrap;html=1;aspect=fixed;" parent="1" vertex="1">
          <mxGeometry x="70" y="400" width="190" height="190" as="geometry" />
        </mxCell>
        <mxCell id="SPBS_ynuWvERHbvvElc9-1" value="&lt;font style=&quot;font-size: 32px;&quot;&gt;&lt;b&gt;Logical System Boundaries&lt;/b&gt;&lt;/font&gt;" style="text;html=1;align=center;verticalAlign=middle;resizable=0;points=[];autosize=1;strokeColor=none;fillColor=none;" parent="1" vertex="1">
          <mxGeometry x="205" y="20" width="440" height="50" as="geometry" />
        </mxCell>
        <mxCell id="80AtWF_Cr9X-JMB0mEe--1" value="&lt;font style=&quot;font-size: 18px;&quot;&gt;Web Browser, Chromium is recommended&lt;/font&gt;" style="ellipse;whiteSpace=wrap;html=1;aspect=fixed;" vertex="1" parent="1">
          <mxGeometry x="470" y="400" width="190" height="190" as="geometry" />
        </mxCell>
        <mxCell id="80AtWF_Cr9X-JMB0mEe--2" value="&lt;font style=&quot;font-size: 18px;&quot;&gt;LlamaParse and PDFPlumber&lt;/font&gt;" style="ellipse;whiteSpace=wrap;html=1;aspect=fixed;" vertex="1" parent="1">
          <mxGeometry x="275" y="450" width="190" height="190" as="geometry" />
        </mxCell>
      </root>
    </mxGraphModel>
  </diagram>
</mxfile>
